<?xml version="1.0" encoding="UTF-8"?>
<svg width="1536px" height="1536px" viewBox="0 0 1536 1536" version="1.1" xmlns="http://www.w3.org/2000/svg" xmlns:xlink="http://www.w3.org/1999/xlink">
    <!-- Generator: Sketch 3.6.1 (26313) - http://www.bohemiancoding.com/sketch -->
    <title>vpchaticon@1.5x</title>
    <desc>Created with Sketch.</desc>
    <defs></defs>
    <g id="Page-1" stroke="none" stroke-width="1" fill="none" fill-rule="evenodd">
        <g id="vpchaticon">
            <g id="Group-2" transform="translate(88.320000, 23.000000)">
                <g id="buckingham" transform="translate(261.120000, 0.000000)">
                    <g id="Layer_1">
                        <path d="M515.455813,31.2097391 L413.166697,31.2097391 L413.166697,109.841726 L515.455813,109.841726 C528.747161,109.841726 539.52384,99.1004444 539.52384,85.8544026 L539.52384,55.1987118 C539.52384,41.9510209 528.747161,31.2097391 515.455813,31.2097391 L515.455813,31.2097391 Z" id="Shape" fill="#ED4343"></path>
                        <path d="M458.884037,31.2097391 L413.165043,31.2097391 L413.165043,109.841726 L496.04654,109.841726 C466.671239,95.5997166 451.172938,62.9718776 458.884037,31.2097391 L458.884037,31.2097391 Z" id="Shape" fill="#C93F3F"></path>
                        <path d="M807.612347,598.012702 C807.612347,609.139839 798.590973,618.161262 787.463564,618.161262 L49.5604819,618.161262 C38.4330726,618.161262 29.4116983,609.139839 29.4116983,598.012702 L29.4116983,256.593623 C29.4116983,245.466486 38.4330726,236.446712 49.5604819,236.446712 L787.463564,236.446712 C798.590973,236.446712 807.612347,245.466486 807.612347,256.593623 L807.612347,598.012702 L807.612347,598.012702 Z" id="Shape" fill="#C4BEBB"></path>
                        <path d="M81.2188383,598.012702 L81.2188383,256.593623 C81.2188383,245.466486 90.2402125,236.446712 101.367622,236.446712 L49.5604819,236.446712 C38.4330726,236.446712 29.4116983,245.466486 29.4116983,256.593623 L29.4116983,598.011053 C29.4116983,609.13819 38.4330726,618.159614 49.5604819,618.159614 L101.367622,618.159614 C90.2402125,618.161262 81.2188383,609.13819 81.2188383,598.012702 L81.2188383,598.012702 Z" id="Shape" fill="#ADA6A3"></path>
                        <rect id="Rectangle-path" fill="#D69569" x="29.4116983" y="344.037617" width="778.207266" height="274.121997"></rect>
                        <rect id="Rectangle-path" fill="#C68254" x="29.4116983" y="344.037617" width="51.1503481" height="274.121997"></rect>
                        <path d="M413.165043,248.998544 C406.209998,248.998544 400.571846,243.378911 400.571846,236.446712 L400.571846,12.5518325 C400.571846,5.61963285 406.209998,0 413.165043,0 C420.120087,0 425.758239,5.61963285 425.758239,12.5518325 L425.758239,236.446712 C425.758239,243.38056 420.120087,248.998544 413.165043,248.998544 L413.165043,248.998544 Z" id="Shape" fill="#C4BEBB"></path>
                        <rect id="Rectangle-path" fill="#7F5030" x="29.4116983" y="308.420225" width="778.207266" height="45.3148857"></rect>
                        <rect id="Rectangle-path" fill="#704528" x="29.4116983" y="308.420225" width="51.1503481" height="45.3148857"></rect>
                        <g id="Group" transform="translate(274.628300, 367.716586)" fill="#B2794F">
                            <rect id="Rectangle-path" x="1.48894862" y="1.08830918" width="47.7009505" height="249.354718"></rect>
                            <rect id="Rectangle-path" x="228.553613" y="1.08830918" width="47.7009505" height="249.354718"></rect>
                        </g>
                        <g id="Group" transform="translate(79.410593, 410.589372)" fill="#E8B592">
                            <path d="M540.233572,162.481262 C533.278528,162.481262 527.640376,156.86163 527.640376,149.92943 L527.640376,107.381488 C527.640376,100.449288 533.278528,94.8296554 540.233572,94.8296554 C547.188617,94.8296554 552.826769,100.449288 552.826769,107.381488 L552.826769,149.92943 C552.826769,156.86163 547.188617,162.481262 540.233572,162.481262 L540.233572,162.481262 Z" id="Shape"></path>
                            <path d="M599.841148,162.481262 C592.886104,162.481262 587.247952,156.86163 587.247952,149.92943 L587.247952,107.381488 C587.247952,100.449288 592.886104,94.8296554 599.841148,94.8296554 C606.796193,94.8296554 612.434345,100.449288 612.434345,107.381488 L612.434345,149.92943 C612.434345,156.86163 606.796193,162.481262 599.841148,162.481262 L599.841148,162.481262 Z" id="Shape"></path>
                            <path d="M659.448725,162.481262 C652.49368,162.481262 646.855528,156.86163 646.855528,149.92943 L646.855528,107.381488 C646.855528,100.449288 652.49368,94.8296554 659.448725,94.8296554 C666.403769,94.8296554 672.041921,100.449288 672.041921,107.381488 L672.041921,149.92943 C672.041921,156.86163 666.403769,162.481262 659.448725,162.481262 L659.448725,162.481262 Z" id="Shape"></path>
                            <path d="M540.233572,67.9863446 C533.278528,67.9863446 527.640376,62.3667118 527.640376,55.4345121 L527.640376,12.88657 C527.640376,5.95437037 533.278528,0.33473752 540.233572,0.33473752 C547.188617,0.33473752 552.826769,5.95437037 552.826769,12.88657 L552.826769,55.4345121 C552.826769,62.3683607 547.188617,67.9863446 540.233572,67.9863446 L540.233572,67.9863446 Z" id="Shape"></path>
                            <path d="M599.841148,67.9863446 C592.886104,67.9863446 587.247952,62.3667118 587.247952,55.4345121 L587.247952,12.88657 C587.247952,5.95437037 592.886104,0.33473752 599.841148,0.33473752 C606.796193,0.33473752 612.434345,5.95437037 612.434345,12.88657 L612.434345,55.4345121 C612.434345,62.3683607 606.796193,67.9863446 599.841148,67.9863446 L599.841148,67.9863446 Z" id="Shape"></path>
                            <path d="M303.950662,162.481262 C296.995617,162.481262 291.357465,156.86163 291.357465,149.92943 L291.357465,107.381488 C291.357465,100.449288 296.995617,94.8296554 303.950662,94.8296554 C310.905706,94.8296554 316.543858,100.449288 316.543858,107.381488 L316.543858,149.92943 C316.543858,156.86163 310.905706,162.481262 303.950662,162.481262 L303.950662,162.481262 Z" id="Shape"></path>
                            <path d="M363.558238,162.481262 C356.603194,162.481262 350.965042,156.86163 350.965042,149.92943 L350.965042,107.381488 C350.965042,100.449288 356.603194,94.8296554 363.558238,94.8296554 C370.513283,94.8296554 376.151435,100.449288 376.151435,107.381488 L376.151435,149.92943 C376.151435,156.86163 370.513283,162.481262 363.558238,162.481262 L363.558238,162.481262 Z" id="Shape"></path>
                            <path d="M303.950662,67.9863446 C296.995617,67.9863446 291.357465,62.3667118 291.357465,55.4345121 L291.357465,12.88657 C291.357465,5.95437037 296.995617,0.33473752 303.950662,0.33473752 C310.905706,0.33473752 316.543858,5.95437037 316.543858,12.88657 L316.543858,55.4345121 C316.543858,62.3683607 310.905706,67.9863446 303.950662,67.9863446 L303.950662,67.9863446 Z" id="Shape"></path>
                            <path d="M363.558238,67.9863446 C356.603194,67.9863446 350.965042,62.3667118 350.965042,55.4345121 L350.965042,12.88657 C350.965042,5.95437037 356.603194,0.33473752 363.558238,0.33473752 C370.513283,0.33473752 376.151435,5.95437037 376.151435,12.88657 L376.151435,55.4345121 C376.151435,62.3683607 370.513283,67.9863446 363.558238,67.9863446 L363.558238,67.9863446 Z" id="Shape"></path>
                            <path d="M659.448725,67.9863446 C652.49368,67.9863446 646.855528,62.3667118 646.855528,55.4345121 L646.855528,12.88657 C646.855528,5.95437037 652.49368,0.33473752 659.448725,0.33473752 C666.403769,0.33473752 672.041921,5.95437037 672.041921,12.88657 L672.041921,55.4345121 C672.041921,62.3683607 666.403769,67.9863446 659.448725,67.9863446 L659.448725,67.9863446 Z" id="Shape"></path>
                            <path d="M13.7446501,162.481262 C6.78960569,162.481262 1.1514536,156.86163 1.1514536,149.92943 L1.1514536,107.381488 C1.1514536,100.449288 6.78960569,94.8296554 13.7446501,94.8296554 C20.6996945,94.8296554 26.3378466,100.449288 26.3378466,107.381488 L26.3378466,149.92943 C26.3378466,156.86163 20.6996945,162.481262 13.7446501,162.481262 L13.7446501,162.481262 Z" id="Shape"></path>
                            <path d="M73.3522264,162.481262 C66.397182,162.481262 60.7590299,156.86163 60.7590299,149.92943 L60.7590299,107.381488 C60.7590299,100.449288 66.397182,94.8296554 73.3522264,94.8296554 C80.3072708,94.8296554 85.9454229,100.449288 85.9454229,107.381488 L85.9454229,149.92943 C85.9454229,156.86163 80.3072708,162.481262 73.3522264,162.481262 L73.3522264,162.481262 Z" id="Shape"></path>
                            <path d="M132.959803,162.481262 C126.004758,162.481262 120.366606,156.86163 120.366606,149.92943 L120.366606,107.381488 C120.366606,100.449288 126.004758,94.8296554 132.959803,94.8296554 C139.914847,94.8296554 145.552999,100.449288 145.552999,107.381488 L145.552999,149.92943 C145.552999,156.86163 139.914847,162.481262 132.959803,162.481262 L132.959803,162.481262 Z" id="Shape"></path>
                            <path d="M13.7446501,67.9863446 C6.78960569,67.9863446 1.1514536,62.3667118 1.1514536,55.4345121 L1.1514536,12.88657 C1.1514536,5.95437037 6.78960569,0.33473752 13.7446501,0.33473752 C20.6996945,0.33473752 26.3378466,5.95437037 26.3378466,12.88657 L26.3378466,55.4345121 C26.3378466,62.3683607 20.6996945,67.9863446 13.7446501,67.9863446 L13.7446501,67.9863446 Z" id="Shape"></path>
                            <path d="M73.3522264,67.9863446 C66.397182,67.9863446 60.7590299,62.3667118 60.7590299,55.4345121 L60.7590299,12.88657 C60.7590299,5.95437037 66.397182,0.33473752 73.3522264,0.33473752 C80.3072708,0.33473752 85.9454229,5.95437037 85.9454229,12.88657 L85.9454229,55.4345121 C85.9454229,62.3683607 80.3072708,67.9863446 73.3522264,67.9863446 L73.3522264,67.9863446 Z" id="Shape"></path>
                            <path d="M132.959803,67.9863446 C126.004758,67.9863446 120.366606,62.3667118 120.366606,55.4345121 L120.366606,12.88657 C120.366606,5.95437037 126.004758,0.33473752 132.959803,0.33473752 C139.914847,0.33473752 145.552999,5.95437037 145.552999,12.88657 L145.552999,55.4345121 C145.552999,62.3683607 139.914847,67.9863446 132.959803,67.9863446 L132.959803,67.9863446 Z" id="Shape"></path>
                        </g>
                        <path d="M552.945885,308.886879 L416.156175,208.285887 C414.379363,206.978267 411.952377,206.978267 410.173911,208.285887 L273.385855,308.886879 C269.483156,311.757707 271.53625,317.947878 276.376988,317.947878 L549.954752,317.947878 C552.130272,317.947878 554.059287,316.556161 554.73924,314.496618 C555.419194,312.437076 554.696226,310.174712 552.945885,308.886879 L552.945885,308.886879 Z" id="Shape" fill="#D69467"></path>
                        <path d="M346.427057,308.886879 L449.685644,232.945984 L416.156175,208.287536 C414.379363,206.979916 411.952377,206.979916 410.173911,208.287536 L273.385855,308.888528 C269.483156,311.759356 271.53625,317.949527 276.376988,317.949527 L349.416535,317.949527 C344.567526,317.947878 342.532629,311.751111 346.427057,308.886879 L346.427057,308.886879 Z" id="Shape" fill="#C68254"></path>
                        <path d="M571.612337,348.303459 C571.612337,359.394319 562.590963,368.386061 551.463554,368.386061 L274.864878,368.386061 C263.737468,368.386061 254.716094,359.394319 254.716094,348.303459 L254.716094,328.496232 C254.716094,317.403723 263.737468,308.41363 274.864878,308.41363 L551.463554,308.41363 C562.590963,308.41363 571.612337,317.403723 571.612337,328.496232 L571.612337,348.303459 L571.612337,348.303459 L571.612337,348.303459 Z" id="Shape" fill="#A36F43"></path>
                        <path d="M551.463554,338.399845 L274.864878,338.399845 C265.504354,338.399845 257.657595,332.029939 255.394393,323.405913 C254.965907,325.03343 254.716094,326.73515 254.716094,328.496232 L254.716094,348.303459 C254.716094,359.394319 263.737468,368.386061 274.864878,368.386061 L551.463554,368.386061 C562.590963,368.386061 571.612337,359.394319 571.612337,348.303459 L571.612337,328.496232 C571.612337,326.73515 571.36087,325.03343 570.934038,323.405913 C568.670836,332.02829 560.824077,338.399845 551.463554,338.399845 L551.463554,338.399845 Z" id="Shape" fill="#96623B"></path>
                        <path d="M585.651468,798.190686 L585.651468,640.93001 C585.651468,627.682319 574.876443,616.941037 561.583441,616.941037 L264.746645,616.941037 C251.451988,616.941037 240.676963,627.682319 240.676963,640.93001 L240.676963,798.190686 L585.651468,798.190686 L585.651468,798.190686 Z" id="Shape" fill="#F4DAC9"></path>
                        <path d="M323.581622,616.941037 L264.746645,616.941037 C251.451988,616.941037 240.676963,627.682319 240.676963,640.93001 L240.676963,798.190686 L299.511941,798.190686 L299.511941,640.93001 C299.511941,627.682319 310.285311,616.941037 323.581622,616.941037 L323.581622,616.941037 Z" id="Shape" fill="#F2CBB1"></path>
                        <g id="Group" transform="translate(0.000000, 616.708535)" fill="#E8B592">
                            <path d="M811.625891,0.232502415 L561.583441,0.232502415 C574.876443,0.232502415 585.651468,10.9737842 585.651468,24.221475 L585.651468,181.482151 L835.692264,181.482151 L835.692264,24.221475 C835.693918,10.9737842 824.918893,0.232502415 811.625891,0.232502415 L811.625891,0.232502415 Z" id="Shape"></path>
                            <path d="M25.4014634,0.232502415 L265.411708,0.232502415 C252.12036,0.232502415 241.343681,10.9737842 241.343681,24.221475 L241.343681,181.482151 L1.33343621,181.482151 L1.33343621,24.221475 C1.33343621,10.9737842 12.1101154,0.232502415 25.4014634,0.232502415 L25.4014634,0.232502415 Z" id="Shape"></path>
                        </g>
                        <path d="M84.0312968,616.941037 L25.4014634,616.941037 C12.1101154,616.941037 1.33343621,627.682319 1.33343621,640.93001 L1.33343621,798.190686 L59.9632696,798.190686 L59.9632696,640.93001 C59.9632696,627.682319 70.7399488,616.941037 84.0312968,616.941037 L84.0312968,616.941037 Z" id="Shape" fill="#DBA37D"></path>
                        <path d="M471.998366,798.190686 L471.998366,695.571375 C471.998366,682.322035 461.221687,671.582403 447.930339,671.582403 L378.399747,671.582403 C365.108399,671.582403 354.33172,682.322035 354.33172,695.571375 L354.33172,798.190686 L471.998366,798.190686 L471.998366,798.190686 Z" id="Shape" fill="#9B6743"></path>
                        <path d="M437.23307,671.582403 L378.399747,671.582403 C365.108399,671.582403 354.33172,682.322035 354.33172,695.571375 L354.33172,798.190686 L413.165043,798.190686 L413.165043,695.571375 C413.165043,682.322035 423.941722,671.582403 437.23307,671.582403 L437.23307,671.582403 Z" id="Shape" fill="#895A3A"></path>
                        <g id="Group" transform="translate(46.322846, 679.368760)" fill="#F7DDCB">
                            <path d="M13.8720379,67.7538422 C6.91699352,67.7538422 1.27884142,62.1342093 1.27884142,55.2020097 L1.27884142,12.6540676 C1.27884142,5.72186795 6.91699352,0.102235105 13.8720379,0.102235105 C20.8270824,0.102235105 26.4652345,5.72186795 26.4652345,12.6540676 L26.4652345,55.2020097 C26.4652345,62.1342093 20.8270824,67.7538422 13.8720379,67.7538422 L13.8720379,67.7538422 Z" id="Shape"></path>
                            <path d="M73.4796142,67.7538422 C66.5245698,67.7538422 60.8864177,62.1342093 60.8864177,55.2020097 L60.8864177,12.6540676 C60.8864177,5.72186795 66.5245698,0.102235105 73.4796142,0.102235105 C80.4346587,0.102235105 86.0728108,5.72186795 86.0728108,12.6540676 L86.0728108,55.2020097 C86.0728108,62.1342093 80.4346587,67.7538422 73.4796142,67.7538422 L73.4796142,67.7538422 Z" id="Shape"></path>
                            <path d="M133.087191,67.7538422 C126.132146,67.7538422 120.493994,62.1342093 120.493994,55.2020097 L120.493994,12.6540676 C120.493994,5.72186795 126.132146,0.102235105 133.087191,0.102235105 C140.042235,0.102235105 145.680387,5.72186795 145.680387,12.6540676 L145.680387,55.2020097 C145.680387,62.1342093 140.042235,67.7538422 133.087191,67.7538422 L133.087191,67.7538422 Z" id="Shape"></path>
                            <path d="M605.75062,67.7538422 C598.795576,67.7538422 593.157424,62.1342093 593.157424,55.2020097 L593.157424,12.6540676 C593.157424,5.72186795 598.795576,0.102235105 605.75062,0.102235105 C612.705665,0.102235105 618.343817,5.72186795 618.343817,12.6540676 L618.343817,55.2020097 C618.342162,62.1342093 612.70401,67.7538422 605.75062,67.7538422 L605.75062,67.7538422 Z" id="Shape"></path>
                            <path d="M665.356542,67.7538422 C658.401498,67.7538422 652.763345,62.1342093 652.763345,55.2020097 L652.763345,12.6540676 C652.763345,5.72186795 658.401498,0.102235105 665.356542,0.102235105 C672.311586,0.102235105 677.949738,5.72186795 677.949738,12.6540676 L677.949738,55.2020097 C677.949738,62.1342093 672.311586,67.7538422 665.356542,67.7538422 L665.356542,67.7538422 Z" id="Shape"></path>
                            <path d="M724.964118,67.7538422 C718.009074,67.7538422 712.370922,62.1342093 712.370922,55.2020097 L712.370922,12.6540676 C712.370922,5.72186795 718.009074,0.102235105 724.964118,0.102235105 C731.919163,0.102235105 737.557315,5.72186795 737.557315,12.6540676 L737.557315,55.2020097 C737.557315,62.1342093 731.919163,67.7538422 724.964118,67.7538422 L724.964118,67.7538422 Z" id="Shape"></path>
                        </g>
                        <path d="M1.33343621,796.516998 L1.33343621,824.181488 C1.33343621,835.273997 10.3548104,844.26409 21.4822198,844.26409 L815.63778,844.26409 C826.76519,844.26409 835.786564,835.273997 835.786564,824.181488 L835.786564,796.516998 L1.33343621,796.516998 L1.33343621,796.516998 Z" id="Shape" fill="#7F5030"></path>
                        <path d="M60.1948838,824.181488 L60.1948838,796.516998 L1.33343621,796.516998 L1.33343621,824.181488 C1.33343621,835.273997 10.3548104,844.26409 21.4822198,844.26409 L80.3436674,844.26409 C69.216258,844.26409 60.1948838,835.273997 60.1948838,824.181488 L60.1948838,824.181488 Z" id="Shape" fill="#704528"></path>
                    </g>
                </g>
                <text id="V-P" fill="#9B6743" font-family="StrenuousThreeD-Regular, Strenuous" font-size="679.68" font-weight="700" line-spacing="552.96" letter-spacing="-79.7184009">
                    <tspan x="-5.68434189e-14" y="1413.8">V </tspan>
                    <tspan x="439.361278" y="1413.8">P</tspan>
                </text>
                <text id="Chat" transform="translate(915.019556, 1193.674607) rotate(-24.000000) translate(-915.019556, -1193.674607) " font-family="Chalkduster" font-size="376.32" font-weight="normal" letter-spacing="-15.648089" fill="#A11728">
                    <tspan x="468.519556" y="1325.17461">Chat</tspan>
                </text>
            </g>
        </g>
    </g>
</svg>